<svg id="Layer_1" data-name="Layer 1" xmlns="http://www.w3.org/2000/svg" viewBox="0 0 519.19 137.71"><defs><style>.cls-1{fill:#fff;}</style></defs><title>splinter_logos</title><path class="cls-1" d="M197.52,44.46l-19.3,0,0,49h8.6V77.69h0V69.92h0V52.3h10c6.43,0,10.56,3,10.56,8.73v.14c0,5.1-4,8.74-10.55,8.75h-4.18v7.76h3.89c10.77,0,19.58-5.75,19.57-16.73v-.14C216.12,51,209,44.45,197.52,44.46Z"/><polygon class="cls-1" points="240.52 93.38 231.96 93.38 231.92 44.44 240.52 44.43 240.52 93.38"/><rect class="cls-1" x="246.42" y="85.53" width="19.87" height="7.83"/><rect class="cls-1" x="282.71" y="44.39" width="8.6" height="48.95"/><polygon class="cls-1" points="345.58 78.19 319.33 44.37 311.36 44.38 311.39 93.32 319.86 93.31 319.83 58.49 346.85 93.29 354.05 93.29 354.01 44.34 345.55 44.35 345.58 78.19"/><rect class="cls-1" x="370.1" y="44.31" width="39.72" height="7.97"/><rect class="cls-1" x="385.64" y="58.11" width="8.67" height="35.15"/><polygon class="cls-1" points="434.5 52.03 462.18 52.01 462.18 44.32 425.89 44.35 425.93 93.3 462.18 93.27 462.18 85.58 434.52 85.6 434.5 52.03"/><path class="cls-1" d="M488.42,93.14h-8.53l0-48.59h19.66c6.1,0,10.89,1.79,14,4.85a14.65,14.65,0,0,1,4,10.47V60c0,8-4.77,12.78-11.5,14.73l13.13,18.38H509.05L497.1,76.2V68.63h1.8c6.11,0,10-3.2,10-8.13v-.14c0-5.2-3.76-8-10.07-8H488.39Z"/><path class="cls-1" d="M143.57,64.37c-9.45-2.23-11.69-3.91-11.69-7.68v-.14c0-3.22,2.93-5.81,8-5.81,4.47,0,8.88,1.74,13.29,5l4.61-6.51A27.13,27.13,0,0,0,140,43.12c-9.72,0-16.71,5.81-16.7,14.2v.14c0,9,5.88,12.1,16.3,14.6,9.1,2.1,11,4,11.06,7.48v.14c0,3.63-3.35,6.15-8.67,6.16-6,0-10.77-2.3-15.45-6.35l-5.18,6.15a30.2,30.2,0,0,0,20.43,7.82c10.28,0,17.48-5.47,17.47-14.63v-.14C159.23,70.58,153.91,66.88,143.57,64.37Z"/><circle class="cls-1" cx="448.97" cy="68.81" r="4.6"/><path class="cls-1" d="M50.32,88.44a7.48,7.48,0,0,1-8,8.31,7.61,7.61,0,0,1-6.43-4.87,7.17,7.17,0,0,1-.5-2.69,3.3,3.3,0,0,0-1.64-2.9l-19.11-11a3.22,3.22,0,0,0-3.31,0A7.47,7.47,0,1,1,3.82,62.32a3.2,3.2,0,0,0,1.69-2.76V37.2a3.2,3.2,0,0,0-1.69-2.76,7.47,7.47,0,1,1,7.53-12.91,3.26,3.26,0,0,0,3.32,0l19.1-11a3.27,3.27,0,0,0,1.64-2.89,7.17,7.17,0,0,1,.5-2.69A7.61,7.61,0,0,1,42.34,0,7.48,7.48,0,1,1,39,13.87a3.29,3.29,0,0,0-3.32,0l-19.1,11a3.38,3.38,0,0,0-1.65,3v0a7.45,7.45,0,0,1-3.82,6.51,3.19,3.19,0,0,0-1.69,2.75V59.56a3.19,3.19,0,0,0,1.69,2.76A7.44,7.44,0,0,1,15,68.83v0a3.38,3.38,0,0,0,1.65,3l19.1,11a3.29,3.29,0,0,0,3.32,0,7.41,7.41,0,0,1,4.58-1.05A7.51,7.51,0,0,1,50.32,88.44ZM35.09,55.87a7.51,7.51,0,0,0,4.59-1,3.25,3.25,0,0,1,3.31,0l19.11,11a3.41,3.41,0,0,1,1.65,3v0a7.48,7.48,0,0,0,3.83,6.52,3.18,3.18,0,0,1,1.68,2.75v22.37a3.18,3.18,0,0,1-1.68,2.75,7.48,7.48,0,0,0-3.83,6.52v0a3.39,3.39,0,0,1-1.64,3l-19.1,11a3.24,3.24,0,0,1-3.32,0,7.48,7.48,0,1,0-3.33,13.85,7.6,7.6,0,0,0,6.44-4.87,6.91,6.91,0,0,0,.49-2.68,3.33,3.33,0,0,1,1.65-2.9l19.1-11a3.29,3.29,0,0,1,3.32,0,7.41,7.41,0,0,0,4.58,1,7.47,7.47,0,0,0,2.95-14,3.21,3.21,0,0,1-1.69-2.77V78.16a3.22,3.22,0,0,1,1.69-2.77,7.47,7.47,0,1,0-7.53-12.9,3.29,3.29,0,0,1-3.32,0l-19.1-11a3.32,3.32,0,0,1-1.65-2.9,6.94,6.94,0,0,0-.49-2.68A7.59,7.59,0,0,0,36.36,41a7.48,7.48,0,0,0-1.27,14.9Z"/></svg>