<svg id="Layer_1" data-name="Layer 1" xmlns="http://www.w3.org/2000/svg" viewBox="0 0 397.84 50.34"><title>splinter_logos</title><path d="M76.17,1.35H56.87l0,49h8.6V34.57h0V26.81h0l0-17.62h10c6.43,0,10.56,3,10.57,8.73v.14c0,5.11-4,8.75-10.56,8.75H71.32v7.76h3.9c10.77,0,19.58-5.75,19.57-16.72V17.7C94.78,7.84,87.64,1.34,76.17,1.35Z"/><polygon points="119.18 50.26 110.61 50.27 110.58 1.32 119.18 1.31 119.18 50.26"/><rect x="125.07" y="42.42" width="19.87" height="7.83"/><rect x="161.36" y="1.28" width="8.6" height="48.95"/><polygon points="224.23 35.08 197.98 1.25 190.01 1.26 190.05 50.21 198.51 50.2 198.49 15.38 225.5 50.18 232.7 50.17 232.66 1.23 224.21 1.23 224.23 35.08"/><rect x="248.75" y="1.2" width="39.72" height="7.97"/><rect x="264.3" y="15" width="8.67" height="35.15"/><polygon points="313.15 8.92 340.84 8.9 340.84 1.21 304.55 1.23 304.58 50.18 340.84 50.15 340.84 42.46 313.18 42.48 313.15 8.92"/><path d="M367.08,50h-8.54l0-48.59,19.66,0c6.11,0,10.9,1.8,14,4.85a14.74,14.74,0,0,1,4,10.48v.14c0,8-4.78,12.77-11.51,14.72L397.84,50H387.71l-12-16.93V25.52h1.81c6.1,0,10-3.2,10-8.13v-.14c0-5.21-3.75-8-10.07-8H367.05Z"/><path d="M22.22,21.25c-9.44-2.23-11.68-3.9-11.68-7.68v-.14c0-3.22,2.93-5.8,8-5.81,4.48,0,8.88,1.74,13.29,5L36.4,6.14A27.11,27.11,0,0,0,18.64,0C8.92,0,1.93,5.82,1.94,14.21v.14c0,9,5.88,12.09,16.3,14.6,9.09,2.09,11.05,4,11.05,7.47v.14c0,3.64-3.35,6.16-8.66,6.16-6,0-10.77-2.3-15.46-6.35L0,42.53a30.12,30.12,0,0,0,20.42,7.81c10.28,0,17.48-5.46,17.47-14.62v-.14C37.89,27.47,32.57,23.76,22.22,21.25Z"/><circle cx="327.62" cy="25.69" r="4.6"/></svg>