<svg id="Layer_1" data-name="Layer 1" xmlns="http://www.w3.org/2000/svg" xmlns:xlink="http://www.w3.org/1999/xlink" viewBox="0 0 397.84 50.34"><defs><style>.cls-1{fill:url(#linear-gradient);}</style><linearGradient id="linear-gradient" y1="25.17" x2="397.84" y2="25.17" gradientUnits="userSpaceOnUse"><stop offset="0" stop-color="#ff6c4e"/><stop offset="0.27" stop-color="#ff6850"/><stop offset="0.51" stop-color="#ff5d57"/><stop offset="0.75" stop-color="#ff4a63"/><stop offset="0.98" stop-color="#ff3073"/><stop offset="1" stop-color="#ff2e74"/></linearGradient></defs><title>splinter_logos</title><path class="cls-1" d="M94.79,17.7v.14c0,11-8.8,16.71-19.57,16.72h-3.9V26.8h4.17c6.51,0,10.56-3.64,10.56-8.75v-.14c0-5.73-4.14-8.74-10.57-8.73h-10l0,17.62h0v7.76h0V50.3h-8.6l0-48.95h19.3C87.64,1.34,94.78,7.84,94.79,17.7ZM119.18,1.31h-8.6l0,49h8.57Zm5.89,48.94H145V42.41H125.07Zm36.31,0H170l0-48.95h-8.6Zm62.85-15.15L198,1.25h-8l0,49h8.46l0-34.82,27,34.8h7.2l0-48.94H224.2ZM288.47,9.15v-8l-39.71,0v8Zm-24.16,41H273L273,15h-8.67ZM313.15,8.92l27.69,0V1.21l-36.29,0,0,49,36.26,0V42.46l-27.66,0Zm53.9.29h10.42c6.32,0,10.07,2.84,10.07,8.05v.14c0,4.93-3.88,8.12-10,8.13h-1.81v7.56l12,16.93h10.13L384.71,31.62c6.73-1.95,11.51-6.74,11.51-14.72v-.14a14.74,14.74,0,0,0-4-10.48c-3.13-3.05-7.92-4.85-14-4.85l-19.66,0,0,48.59h8.54Zm-344.83,12c-9.44-2.23-11.68-3.9-11.68-7.68v-.14c0-3.22,2.93-5.8,8-5.81,4.48,0,8.88,1.74,13.29,5L36.4,6.14A27.11,27.11,0,0,0,18.64,0C8.92,0,1.93,5.82,1.94,14.21v.14c0,9,5.88,12.09,16.3,14.6,9.09,2.09,11.05,4,11.05,7.47v.14c0,3.64-3.35,6.16-8.66,6.16-6,0-10.77-2.3-15.46-6.35L0,42.53a30.12,30.12,0,0,0,20.42,7.81c10.28,0,17.48-5.46,17.47-14.62v-.14C37.89,27.47,32.57,23.76,22.22,21.25ZM323,25.69a4.61,4.61,0,1,0,4.6-4.6A4.6,4.6,0,0,0,323,25.69Z"/></svg>